<?xml version="1.0" encoding="UTF-8" standalone="no"?>
<!-- Generator: Adobe Illustrator 19.0.0, SVG Export Plug-In . SVG Version: 6.00 Build 0)  -->

<svg
   xmlns:dc="http://purl.org/dc/elements/1.1/"
   xmlns:cc="http://creativecommons.org/ns#"
   xmlns:rdf="http://www.w3.org/1999/02/22-rdf-syntax-ns#"
   xmlns:svg="http://www.w3.org/2000/svg"
   xmlns="http://www.w3.org/2000/svg"
   xmlns:sodipodi="http://sodipodi.sourceforge.net/DTD/sodipodi-0.dtd"
   xmlns:inkscape="http://www.inkscape.org/namespaces/inkscape"
   version="1.1"
   id="Layer_1"
   x="0px"
   y="0px"
   viewBox="0 0 395.09601 395.09601"
   xml:space="preserve"
   sodipodi:docname="gauge-indicator-svgrepo-com(1).svg"
   width="395.09601"
   height="395.09601"
   inkscape:version="0.92.1 r15371"><metadata
     id="metadata75"><rdf:RDF><cc:Work
         rdf:about=""><dc:format>image/svg+xml</dc:format><dc:type
           rdf:resource="http://purl.org/dc/dcmitype/StillImage" /><dc:title></dc:title></cc:Work></rdf:RDF></metadata><defs
     id="defs73" /><sodipodi:namedview
     pagecolor="#ffffff"
     bordercolor="#666666"
     borderopacity="1"
     objecttolerance="10"
     gridtolerance="10"
     guidetolerance="10"
     inkscape:pageopacity="0"
     inkscape:pageshadow="2"
     inkscape:window-width="1920"
     inkscape:window-height="1031"
     id="namedview71"
     showgrid="false"
     fit-margin-top="10"
     fit-margin-left="10"
     fit-margin-right="10"
     fit-margin-bottom="10"
     inkscape:zoom="1.3037281"
     inkscape:cx="77.763091"
     inkscape:cy="117.24568"
     inkscape:window-x="0"
     inkscape:window-y="0"
     inkscape:window-maximized="1"
     inkscape:current-layer="Layer_1" /><path
     style="fill:#d6d2c4"
     d="m 336.708,263.844 c 9.611,-20.093 14.996,-42.577 14.996,-66.296 0,-85.002 -69.155,-154.157 -154.157,-154.157 -85.002,0 -154.157,69.154 -154.157,154.157 0,85.003 69.156,154.156 154.158,154.156 51.104,0 96.479,-24.996 124.544,-63.403"
     id="path2"
     inkscape:connector-curvature="0" /><path
     style="fill:#e5e2dc"
     d="m 310.018,302.852 c 4.309,-4.599 8.348,-9.452 12.074,-14.551 l 14.618,-24.457 c 9.611,-20.093 14.996,-42.577 14.996,-66.296 0,-75.076 -53.949,-137.777 -125.113,-151.401 -51.608,19.002 -88.515,68.664 -88.515,126.785 0,74.466 60.583,135.049 135.049,135.049 12.786,0.001 25.16,-1.793 36.891,-5.129 z"
     id="path4"
     inkscape:connector-curvature="0" /><path
     style="fill:#36a1cb"
     d="m 80.966,77.525 25.326,28.453 c 0,0 -40.283,51.128 -41.953,87.21 H 33.476 c 0,-10e-4 6.864,-76.386 47.49,-115.663 z"
     id="path6"
     inkscape:connector-curvature="0" /><path
     style="fill:#4baf78"
     d="m 195.185,33.745 -1.111,31.254 c 0,0 -63.783,12.984 -88.376,39.44 L 80.965,88.233 c 10e-4,-0.001 57.833,-50.77 114.22,-54.488 z"
     id="path8"
     inkscape:connector-curvature="0" /><path
     style="fill:#ffb92e"
     d="m 309.511,76.783 -19.943,23.995 c 0,0 -54.209,-36.034 -90.308,-34.79 l -4.075,-32.242 c 0,-0.001 71.903,5.706 114.326,43.037 z"
     id="path10"
     inkscape:connector-curvature="0" /><path
     style="fill:#ea6428"
     d="m 355.517,196.494 -28.062,-4.323 c 0,0 -10.952,-64.163 -36.615,-89.582 L 309.511,82.72 c 0,-0.002 44.078,57.298 46.006,113.774 z"
     id="path12"
     inkscape:connector-curvature="0" /><path
     style="fill:#e35f46"
     d="m 256.023,139.796 c -1.01,-0.825 -2.46,-0.836 -3.485,-0.027 l -69.439,54.874 c -2.349,1.86 -4.269,4.122 -5.751,6.814 l -0.337,0.664 c -3.515,6.974 -3.168,15.117 0.943,21.797 0.012,0.021 0.061,0.101 0.073,0.122 0.079,0.128 0.165,0.255 0.249,0.381 l 0.116,0.174 c 0.102,0.154 0.205,0.308 0.266,0.393 0.056,0.08 0.114,0.16 0.229,0.319 0.165,0.226 0.333,0.452 0.47,0.623 l 0.169,0.215 c 0.196,0.244 0.394,0.483 0.557,0.666 l 0.106,0.122 c 0.006,0.007 0.072,0.083 0.079,0.09 0.198,0.22 0.395,0.437 0.589,0.638 l 0.194,0.196 c 0.187,0.191 0.377,0.377 0.62,0.608 l 0.252,0.231 c 0.164,0.149 0.328,0.296 0.496,0.442 0.012,0.01 0.08,0.067 0.091,0.076 l 0.752,0.612 c 0.169,0.129 0.343,0.258 0.534,0.398 l 0.298,0.214 c 0.217,0.154 0.441,0.304 0.67,0.452 0.013,0.009 0.096,0.063 0.11,0.071 0.012,0.008 0.115,0.075 0.127,0.082 0.25,0.158 0.506,0.312 0.83,0.5 l 0.107,0.06 c 0.272,0.157 0.552,0.304 0.787,0.424 0.093,0.05 0.184,0.098 0.239,0.125 0.244,0.121 0.491,0.236 0.74,0.351 0.016,0.007 0.108,0.049 0.122,0.056 l 0.178,0.081 c 0.174,0.077 0.35,0.147 0.559,0.23 l 0.141,0.058 c 0.135,0.056 0.268,0.11 0.395,0.159 0.058,0.022 0.116,0.042 0.178,0.062 2.47,0.902 5.059,1.359 7.691,1.359 v 0 c 5.07,0 9.853,-1.664 13.831,-4.809 l 0.668,-0.529 c 2.262,-1.93 4.093,-4.264 5.442,-6.939 l 39.839,-79.029 c 0.588,-1.163 0.287,-2.58 -0.725,-3.406 z m -74.955,83.78 v 0 z m 0.599,0.791 v 0 h -0.001 z m 6.494,5.274 v 0 z"
     id="path14"
     inkscape:connector-curvature="0" /><path
     style="fill:#808080"
     d="M 350.653,188.146 H 334.45 c -1.921,-30.671 -13.953,-59.451 -34.373,-82.375 l 11.635,-11.636 c 3.26,-3.26 3.26,-8.546 0,-11.805 -3.26,-3.26 -8.546,-3.26 -11.805,0 L 288.25,93.987 C 265.232,73.639 236.458,61.748 205.896,59.91 V 43.391 c 0,-4.61 -3.736,-8.348 -8.348,-8.348 -4.61,0 -8.348,3.738 -8.348,8.348 V 59.91 c -30.553,1.838 -59.335,13.732 -82.352,34.079 L 95.19,82.331 c -3.26,-3.26 -8.546,-3.26 -11.805,0 -3.261,3.26 -3.261,8.545 0,11.805 l 11.635,11.636 c -20.411,22.915 -32.452,51.701 -34.374,82.374 h -16.2 c -4.61,0 -8.348,3.738 -8.348,8.348 0,4.61 3.738,8.348 8.348,8.348 h 30.171 c 4.611,0 8.348,-3.738 8.348,-8.348 0,-3.654 -2.35,-6.751 -5.62,-7.883 1.834,-27.5 12.685,-52.293 29.624,-71.543 1.15,0.561 2.4,0.848 3.652,0.848 2.136,0 4.273,-0.815 5.902,-2.445 2.579,-2.578 3.11,-6.42 1.609,-9.529 19.358,-16.897 44.225,-27.63 71.644,-29.345 1.214,3.109 4.232,5.314 7.769,5.314 3.535,0 6.549,-2.2 7.768,-5.303 27.094,1.775 51.967,12.755 71.417,29.834 -1.214,3.012 -0.602,6.587 1.839,9.028 1.631,1.629 3.767,2.445 5.902,2.445 1.076,0 2.152,-0.208 3.162,-0.621 17.15,19.347 28.249,44.154 30.112,71.318 -3.267,1.133 -5.615,4.228 -5.615,7.88 0,4.61 3.738,8.348 8.348,8.348 h 30.171 c 4.611,0 8.348,-3.738 8.348,-8.348 0.003,-4.608 -3.734,-8.346 -8.344,-8.346 z"
     id="path22"
     inkscape:connector-curvature="0" /><g
     id="g28"
     style="fill:#696969"
     transform="translate(-58.452,10)"><path
       style="fill:#696969"
       d="m 294.055,268.639 h -75.687 c -4.61,0 -8.348,-3.738 -8.348,-8.348 0,-4.61 3.738,-8.348 8.348,-8.348 h 75.687 c 4.61,0 8.348,3.738 8.348,8.348 0,4.611 -3.738,8.348 -8.348,8.348 z"
       id="path24"
       inkscape:connector-curvature="0" /><path
       style="fill:#696969"
       d="m 274.922,297.789 h -37.843 c -4.61,0 -8.348,-3.736 -8.348,-8.348 0,-4.611 3.738,-8.348 8.348,-8.348 h 37.843 c 4.611,0 8.348,3.736 8.348,8.348 0,4.611 -3.737,8.348 -8.348,8.348 z"
       id="path26"
       inkscape:connector-curvature="0" /></g><g
     id="g34"
     style="fill:#808080"
     transform="translate(-58.452,10)"><path
       style="fill:#808080"
       d="M 256,375.096 C 152.585,375.096 68.452,290.963 68.452,187.548 68.452,84.134 152.585,0 256,0 359.413,0 443.548,84.134 443.548,187.548 443.548,290.963 359.413,375.096 256,375.096 Z M 395.16,253.844 c 9.611,-20.093 14.996,-42.577 14.996,-66.296 0,-85.002 -69.155,-154.157 -154.157,-154.157 -85.002,0 -154.157,69.154 -154.157,154.157 0,85.003 69.156,154.156 154.158,154.156 51.104,0 96.479,-24.996 124.544,-63.403"
       id="path30"
       inkscape:connector-curvature="0" /></g><path
     style="fill:#cc3c29"
     d="m 198.707,212.829 0.337,-0.664 c 0.297,-0.539 0.619,-1.054 0.952,-1.557 l -0.007,0.001 c 0.004,-0.006 0.022,-0.029 0.033,-0.045 0.604,-0.908 1.279,-1.749 1.998,-2.546 10.056,-12.755 54.003,-68.22 54.003,-68.22 -1.01,-0.825 -2.46,-0.836 -3.485,-0.027 l -69.439,54.874 c -2.349,1.86 -4.269,4.122 -5.751,6.814 l -0.337,0.664 c -3.515,6.974 -3.168,15.117 0.943,21.797 0.012,0.021 0.061,0.101 0.073,0.122 0.079,0.128 0.165,0.255 0.249,0.381 l 0.116,0.174 c 0.102,0.154 0.205,0.308 0.266,0.393 0.056,0.08 0.114,0.16 0.229,0.319 0.165,0.226 0.333,0.452 0.47,0.623 l 0.169,0.215 c 0.196,0.244 0.394,0.483 0.557,0.666 l 0.106,0.122 c 0.006,0.007 0.072,0.083 0.079,0.09 0.198,0.22 0.395,0.437 0.589,0.638 l 0.194,0.196 c 0.187,0.191 0.377,0.377 0.62,0.608 l 0.252,0.231 c 0.164,0.149 0.328,0.296 0.496,0.442 0.012,0.01 0.08,0.067 0.091,0.076 l 0.752,0.612 c 0.169,0.129 0.343,0.258 0.534,0.398 l 0.298,0.214 c 0.217,0.154 0.441,0.304 0.67,0.452 0.013,0.009 0.096,0.063 0.11,0.071 0.012,0.008 0.115,0.075 0.127,0.082 0.25,0.158 0.506,0.312 0.83,0.5 l 0.107,0.06 c 0.272,0.157 0.552,0.304 0.787,0.424 0.093,0.05 0.184,0.098 0.239,0.125 0.244,0.121 0.491,0.236 0.74,0.351 0.016,0.007 0.108,0.049 0.122,0.056 l 0.178,0.081 c 0.174,0.077 0.349,0.147 0.559,0.23 l 0.141,0.058 c 0.135,0.056 0.268,0.11 0.395,0.159 0.058,0.022 0.116,0.042 0.178,0.062 2.47,0.902 5.059,1.359 7.691,1.359 v 0 c 0.853,0 1.692,-0.065 2.524,-0.157 -3.954,-6.627 -4.254,-14.643 -0.785,-21.524 z"
     id="path38"
     inkscape:connector-curvature="0" /><g
     id="g40"
     transform="translate(-58.452,10)" /><g
     id="g42"
     transform="translate(-58.452,10)" /><g
     id="g44"
     transform="translate(-58.452,10)" /><g
     id="g46"
     transform="translate(-58.452,10)" /><g
     id="g48"
     transform="translate(-58.452,10)" /><g
     id="g50"
     transform="translate(-58.452,10)" /><g
     id="g52"
     transform="translate(-58.452,10)" /><g
     id="g54"
     transform="translate(-58.452,10)" /><g
     id="g56"
     transform="translate(-58.452,10)" /><g
     id="g58"
     transform="translate(-58.452,10)" /><g
     id="g60"
     transform="translate(-58.452,10)" /><g
     id="g62"
     transform="translate(-58.452,10)" /><g
     id="g64"
     transform="translate(-58.452,10)" /><g
     id="g66"
     transform="translate(-58.452,10)" /><g
     id="g68"
     transform="translate(-58.452,10)" /></svg>